<?xml version="1.0" encoding="UTF-8" standalone="no"?><svg xmlns="http://www.w3.org/2000/svg" xmlns:xlink="http://www.w3.org/1999/xlink" contentStyleType="text/css" height="187px" preserveAspectRatio="none" style="width:623px;height:187px;background:#FFFFFF;" version="1.1" viewBox="0 0 623 187" width="623px" zoomAndPan="magnify"><defs/><g><!--MD5=[d71d1ab749f02987107a92bcb0388bfb]
class SP--><g id="elem_SP"><rect codeLine="1" fill="#F1F1F1" height="48" id="SP" rx="2.5" ry="2.5" style="stroke:#181818;stroke-width:0.5;" width="155" x="203.5" y="7"/><ellipse cx="218.5" cy="23" fill="#ADD1B2" rx="11" ry="11" style="stroke:#181818;stroke-width:1.0;"/><path d="M221.4688,28.6406 Q220.8906,28.9375 220.25,29.0781 Q219.6094,29.2344 218.9063,29.2344 Q216.4063,29.2344 215.0781,27.5938 Q213.7656,25.9375 213.7656,22.8125 Q213.7656,19.6875 215.0781,18.0313 Q216.4063,16.375 218.9063,16.375 Q219.6094,16.375 220.25,16.5313 Q220.9063,16.6875 221.4688,16.9844 L221.4688,19.7031 Q220.8438,19.125 220.25,18.8594 Q219.6563,18.5781 219.0313,18.5781 Q217.6875,18.5781 217,19.6563 Q216.3125,20.7188 216.3125,22.8125 Q216.3125,24.9063 217,25.9844 Q217.6875,27.0469 219.0313,27.0469 Q219.6563,27.0469 220.25,26.7813 Q220.8438,26.5 221.4688,25.9219 L221.4688,28.6406 Z " fill="#000000"/><text fill="#000000" font-family="sans-serif" font-size="14" lengthAdjust="spacing" textLength="123" x="232.5" y="27.8467">SubatomicParticle</text><line style="stroke:#181818;stroke-width:0.5;" x1="204.5" x2="357.5" y1="39" y2="39"/><line style="stroke:#181818;stroke-width:0.5;" x1="204.5" x2="357.5" y1="47" y2="47"/></g><!--MD5=[69c451c751c414e37549b782190fef46]
class B--><g id="elem_B"><rect codeLine="2" fill="#F1F1F1" height="48" id="B" rx="2.5" ry="2.5" style="stroke:#181818;stroke-width:0.5;" width="77" x="8.5" y="132"/><ellipse cx="23.5" cy="148" fill="#ADD1B2" rx="11" ry="11" style="stroke:#181818;stroke-width:1.0;"/><path d="M26.4688,153.6406 Q25.8906,153.9375 25.25,154.0781 Q24.6094,154.2344 23.9063,154.2344 Q21.4063,154.2344 20.0781,152.5938 Q18.7656,150.9375 18.7656,147.8125 Q18.7656,144.6875 20.0781,143.0313 Q21.4063,141.375 23.9063,141.375 Q24.6094,141.375 25.25,141.5313 Q25.9063,141.6875 26.4688,141.9844 L26.4688,144.7031 Q25.8438,144.125 25.25,143.8594 Q24.6563,143.5781 24.0313,143.5781 Q22.6875,143.5781 22,144.6563 Q21.3125,145.7188 21.3125,147.8125 Q21.3125,149.9063 22,150.9844 Q22.6875,152.0469 24.0313,152.0469 Q24.6563,152.0469 25.25,151.7813 Q25.8438,151.5 26.4688,150.9219 L26.4688,153.6406 Z " fill="#000000"/><text fill="#000000" font-family="sans-serif" font-size="14" lengthAdjust="spacing" textLength="45" x="37.5" y="152.8467">Boson</text><line style="stroke:#181818;stroke-width:0.5;" x1="9.5" x2="84.5" y1="164" y2="164"/><line style="stroke:#181818;stroke-width:0.5;" x1="9.5" x2="84.5" y1="172" y2="172"/></g><!--MD5=[207b08653767d711cd995cbc82c01495]
class CP--><g id="elem_CP"><rect codeLine="3" fill="#F1F1F1" height="48" id="CP" rx="2.5" ry="2.5" style="stroke:#181818;stroke-width:0.5;" width="161" x="120.5" y="132"/><ellipse cx="135.5" cy="148" fill="#ADD1B2" rx="11" ry="11" style="stroke:#181818;stroke-width:1.0;"/><path d="M138.4688,153.6406 Q137.8906,153.9375 137.25,154.0781 Q136.6094,154.2344 135.9063,154.2344 Q133.4063,154.2344 132.0781,152.5938 Q130.7656,150.9375 130.7656,147.8125 Q130.7656,144.6875 132.0781,143.0313 Q133.4063,141.375 135.9063,141.375 Q136.6094,141.375 137.25,141.5313 Q137.9063,141.6875 138.4688,141.9844 L138.4688,144.7031 Q137.8438,144.125 137.25,143.8594 Q136.6563,143.5781 136.0313,143.5781 Q134.6875,143.5781 134,144.6563 Q133.3125,145.7188 133.3125,147.8125 Q133.3125,149.9063 134,150.9844 Q134.6875,152.0469 136.0313,152.0469 Q136.6563,152.0469 137.25,151.7813 Q137.8438,151.5 138.4688,150.9219 L138.4688,153.6406 Z " fill="#000000"/><text fill="#000000" font-family="sans-serif" font-size="14" lengthAdjust="spacing" textLength="129" x="149.5" y="152.8467">Composite Particle</text><line style="stroke:#181818;stroke-width:0.5;" x1="121.5" x2="280.5" y1="164" y2="164"/><line style="stroke:#181818;stroke-width:0.5;" x1="121.5" x2="280.5" y1="172" y2="172"/></g><!--MD5=[cc7353c6743ff8a5cd46192e652143fd]
class F--><g id="elem_F"><rect codeLine="4" fill="#F1F1F1" height="48" id="F" rx="2.5" ry="2.5" style="stroke:#181818;stroke-width:0.5;" width="88" x="317" y="132"/><ellipse cx="332" cy="148" fill="#ADD1B2" rx="11" ry="11" style="stroke:#181818;stroke-width:1.0;"/><path d="M334.9688,153.6406 Q334.3906,153.9375 333.75,154.0781 Q333.1094,154.2344 332.4063,154.2344 Q329.9063,154.2344 328.5781,152.5938 Q327.2656,150.9375 327.2656,147.8125 Q327.2656,144.6875 328.5781,143.0313 Q329.9063,141.375 332.4063,141.375 Q333.1094,141.375 333.75,141.5313 Q334.4063,141.6875 334.9688,141.9844 L334.9688,144.7031 Q334.3438,144.125 333.75,143.8594 Q333.1563,143.5781 332.5313,143.5781 Q331.1875,143.5781 330.5,144.6563 Q329.8125,145.7188 329.8125,147.8125 Q329.8125,149.9063 330.5,150.9844 Q331.1875,152.0469 332.5313,152.0469 Q333.1563,152.0469 333.75,151.7813 Q334.3438,151.5 334.9688,150.9219 L334.9688,153.6406 Z " fill="#000000"/><text fill="#000000" font-family="sans-serif" font-size="14" lengthAdjust="spacing" textLength="56" x="346" y="152.8467">Fermion</text><line style="stroke:#181818;stroke-width:0.5;" x1="318" x2="404" y1="164" y2="164"/><line style="stroke:#181818;stroke-width:0.5;" x1="318" x2="404" y1="172" y2="172"/></g><!--MD5=[f595eebca6eefe0b4dc0741e31316c3a]
class FP--><g id="elem_FP"><rect codeLine="5" fill="#F1F1F1" height="48" id="FP" rx="2.5" ry="2.5" style="stroke:#181818;stroke-width:0.5;" width="176" x="440" y="132"/><ellipse cx="455" cy="148" fill="#ADD1B2" rx="11" ry="11" style="stroke:#181818;stroke-width:1.0;"/><path d="M457.9688,153.6406 Q457.3906,153.9375 456.75,154.0781 Q456.1094,154.2344 455.4063,154.2344 Q452.9063,154.2344 451.5781,152.5938 Q450.2656,150.9375 450.2656,147.8125 Q450.2656,144.6875 451.5781,143.0313 Q452.9063,141.375 455.4063,141.375 Q456.1094,141.375 456.75,141.5313 Q457.4063,141.6875 457.9688,141.9844 L457.9688,144.7031 Q457.3438,144.125 456.75,143.8594 Q456.1563,143.5781 455.5313,143.5781 Q454.1875,143.5781 453.5,144.6563 Q452.8125,145.7188 452.8125,147.8125 Q452.8125,149.9063 453.5,150.9844 Q454.1875,152.0469 455.5313,152.0469 Q456.1563,152.0469 456.75,151.7813 Q457.3438,151.5 457.9688,150.9219 L457.9688,153.6406 Z " fill="#000000"/><text fill="#000000" font-family="sans-serif" font-size="14" lengthAdjust="spacing" textLength="144" x="469" y="152.8467">Fundamental Particle</text><line style="stroke:#181818;stroke-width:0.5;" x1="441" x2="615" y1="164" y2="164"/><line style="stroke:#181818;stroke-width:0.5;" x1="441" x2="615" y1="172" y2="172"/></g><!--MD5=[58f23948bab324f665e3806afeef9a56]
class NP--><g id="elem_NP"><rect codeLine="6" fill="#F1F1F1" height="48" id="NP" rx="2.5" ry="2.5" style="stroke:#181818;stroke-width:0.5;" width="138" x="7" y="7"/><ellipse cx="22" cy="23" fill="#ADD1B2" rx="11" ry="11" style="stroke:#181818;stroke-width:1.0;"/><path d="M24.9688,28.6406 Q24.3906,28.9375 23.75,29.0781 Q23.1094,29.2344 22.4063,29.2344 Q19.9063,29.2344 18.5781,27.5938 Q17.2656,25.9375 17.2656,22.8125 Q17.2656,19.6875 18.5781,18.0313 Q19.9063,16.375 22.4063,16.375 Q23.1094,16.375 23.75,16.5313 Q24.4063,16.6875 24.9688,16.9844 L24.9688,19.7031 Q24.3438,19.125 23.75,18.8594 Q23.1563,18.5781 22.5313,18.5781 Q21.1875,18.5781 20.5,19.6563 Q19.8125,20.7188 19.8125,22.8125 Q19.8125,24.9063 20.5,25.9844 Q21.1875,27.0469 22.5313,27.0469 Q23.1563,27.0469 23.75,26.7813 Q24.3438,26.5 24.9688,25.9219 L24.9688,28.6406 Z " fill="#000000"/><text fill="#000000" font-family="sans-serif" font-size="14" lengthAdjust="spacing" textLength="106" x="36" y="27.8467">Nuclear Particle</text><line style="stroke:#181818;stroke-width:0.5;" x1="8" x2="144" y1="39" y2="39"/><line style="stroke:#181818;stroke-width:0.5;" x1="8" x2="144" y1="47" y2="47"/></g><!--MD5=[0707db67f16ebd7fb18da2ec4002adc3]
reverse link SP to B--><g id="link_SP_B"><path codeLine="8" d="M232.31,57.59 C188.82,80.45 125.94,113.51 85.77,134.62 " fill="none" id="SP-backto-B" style="stroke:#181818;stroke-width:1.0;"/><polygon fill="#181818" points="236.99,55.14,227.1609,55.7633,232.5586,57.4558,230.8661,62.8535,236.99,55.14" style="stroke:#181818;stroke-width:1.0;"/><text fill="#000000" font-family="sans-serif" font-size="13" lengthAdjust="spacing" textLength="22" x="180" y="98.0669">is a</text></g><!--MD5=[2e645a272645ecc0f8ccb719a32e167f]
reverse link SP to CP--><g id="link_SP_CP"><path codeLine="9" d="M263.19,59.38 C249,81.19 229.37,111.38 215.98,131.97 " fill="none" id="SP-backto-CP" style="stroke:#181818;stroke-width:1.0;"/><polygon fill="#181818" points="265.95,55.14,257.6843,60.4951,263.2195,59.3286,264.3861,64.8639,265.95,55.14" style="stroke:#181818;stroke-width:1.0;"/><text fill="#000000" font-family="sans-serif" font-size="13" lengthAdjust="spacing" textLength="22" x="247" y="98.0669">is a</text></g><!--MD5=[affa5d08f1f613fe55c3202497269169]
reverse link SP to F--><g id="link_SP_F"><path codeLine="10" d="M298.81,59.38 C313,81.19 332.63,111.38 346.02,131.97 " fill="none" id="SP-backto-F" style="stroke:#181818;stroke-width:1.0;"/><polygon fill="#181818" points="296.05,55.14,297.6139,64.8639,298.7805,59.3286,304.3157,60.4951,296.05,55.14" style="stroke:#181818;stroke-width:1.0;"/><text fill="#000000" font-family="sans-serif" font-size="13" lengthAdjust="spacing" textLength="22" x="327" y="98.0669">is a</text></g><!--MD5=[a8308d2ca4358f711d140c5864749c41]
reverse link SP to FP--><g id="link_SP_FP"><path codeLine="11" d="M332.2,57.49 C376.23,79.42 439.21,110.78 481.75,131.97 " fill="none" id="SP-backto-FP" style="stroke:#181818;stroke-width:1.0;"/><polygon fill="#181818" points="327.46,55.14,333.7307,62.7346,331.935,57.3703,337.2993,55.5746,327.46,55.14" style="stroke:#181818;stroke-width:1.0;"/><text fill="#000000" font-family="sans-serif" font-size="13" lengthAdjust="spacing" textLength="22" x="421" y="98.0669">is a</text></g><!--MD5=[de5dd6cf0aa5a3813cc26ada6f2b5733]
link NP to SP--><g id="link_NP_SP"><path codeLine="12" d="M145.12,31 C162.08,31 180.41,31 197.95,31 " fill="none" id="NP-to-SP" style="stroke:#181818;stroke-width:1.0;"/><polygon fill="#181818" points="203.36,31,194.36,27,198.36,31,194.36,35,203.36,31" style="stroke:#181818;stroke-width:1.0;"/><text fill="#000000" font-family="sans-serif" font-size="13" lengthAdjust="spacing" textLength="22" x="163.25" y="24.0669">is a</text></g><!--MD5=[b4f122db7772493de521323b523a94b1]
@startuml subatomic-particle
class "SubatomicParticle" as SP
class "Boson" as B
class "Composite Particle" as CP
class "Fermion" as F
class "Fundamental Particle" as FP
class "Nuclear Particle" as NP

B -up-> SP : "is a"
CP -up-> SP : "is a"
F -up-> SP : "is a"
FP -up-> SP : "is a"
NP -> SP : "is a"
@enduml

PlantUML version 1.2022.7(Mon Aug 22 17:01:30 UTC 2022)
(GPL source distribution)
Java Runtime: OpenJDK Runtime Environment
JVM: OpenJDK 64-Bit Server VM
Default Encoding: UTF-8
Language: en
Country: null
--></g></svg>